<?xml version="1.0" encoding="UTF-8" standalone="no"?>
<!-- Generator: Gravit.io -->

<svg
   xmlns:dc="http://purl.org/dc/elements/1.1/"
   xmlns:cc="http://creativecommons.org/ns#"
   xmlns:rdf="http://www.w3.org/1999/02/22-rdf-syntax-ns#"
   xmlns:svg="http://www.w3.org/2000/svg"
   xmlns="http://www.w3.org/2000/svg"
   xmlns:xlink="http://www.w3.org/1999/xlink"
   xmlns:sodipodi="http://sodipodi.sourceforge.net/DTD/sodipodi-0.dtd"
   xmlns:inkscape="http://www.inkscape.org/namespaces/inkscape"
   style="isolation:isolate"
   viewBox="0 0 128 128"
   width="128"
   height="128"
   version="1.1"
   id="svg3901"
   sodipodi:docname="com.github.bartzaalberg.python-tester.svg"
   inkscape:version="0.92.3 (2405546, 2018-03-11)">
  <metadata
     id="metadata3907">
    <rdf:RDF>
      <cc:Work
         rdf:about="">
        <dc:format>image/svg+xml</dc:format>
        <dc:type
           rdf:resource="http://purl.org/dc/dcmitype/StillImage" />
        <dc:title></dc:title>
      </cc:Work>
    </rdf:RDF>
  </metadata>
  <defs
     id="defs3905">
    <linearGradient
       inkscape:collect="always"
       id="linearGradient5192">
      <stop
         style="stop-color:#27709a;stop-opacity:1;"
         offset="0"
         id="stop5188" />
      <stop
         style="stop-color:#27709a;stop-opacity:0;"
         offset="1"
         id="stop5190" />
    </linearGradient>
    <linearGradient
       inkscape:collect="always"
       xlink:href="#linearGradient5192"
       id="linearGradient5194"
       x1="64.068344"
       y1="108.59232"
       x2="-22.015587"
       y2="-123.61871"
       gradientUnits="userSpaceOnUse" />
  </defs>
  <sodipodi:namedview
     pagecolor="#ffffff"
     bordercolor="#666666"
     borderopacity="1"
     objecttolerance="10"
     gridtolerance="10"
     guidetolerance="10"
     inkscape:pageopacity="0"
     inkscape:pageshadow="2"
     inkscape:window-width="1920"
     inkscape:window-height="1017"
     id="namedview3903"
     showgrid="false"
     inkscape:zoom="6.515625"
     inkscape:cx="59.625899"
     inkscape:cy="74.174043"
     inkscape:window-x="0"
     inkscape:window-y="30"
     inkscape:window-maximized="1"
     inkscape:current-layer="svg3901"
     showguides="false" />
  <path
     inkscape:connector-curvature="0"
     d="m 115.5,21.555 c 0,-3.342 -2.713,-6.055 -6.055,-6.055 h -90.89 c -3.342,0 -6.055,2.713 -6.055,6.055 v 90.89 c 0,3.342 2.713,6.055 6.055,6.055 h 90.89 c 3.342,0 6.055,-2.713 6.055,-6.055 z"
     id="path3880-5"
     style="isolation:isolate;fill:#ffffff;fill-opacity:1;fill-rule:evenodd" />
  <g
     opacity="0.22"
     id="g3837">
    <radialGradient
       id="_rgradient_8"
       fx="50%"
       fy="50%"
       cx="50%"
       cy="50%"
       r="50%">
      <stop
         offset="0%"
         style="stop-color:rgb(0,0,0)"
         id="stop3830" />
      <stop
         offset="100%"
         style="stop-color:rgb(0,0,0)"
         id="stop3832" />
    </radialGradient>
    <path
       d=" M 119 118 C 118.995 121.291 94.169 123.999 64 123.999 C 33.831 123.999 9.005 121.291 9 118 C 9 118 9 117.999 9 117.999 C 9 114.707 33.828 111.999 64 111.999 C 94.172 111.999 119 114.707 119 117.999 C 119 117.999 119 118 119 118 Z "
       fill="url(#_rgradient_8)"
       id="path3835" />
  </g>
  <g
     id="g3712">
    <g
       id="null"
       style="opacity:0.4;">
      <g
         opacity="0.4"
         id="g3846">
        <radialGradient
           id="_rgradient_9"
           fx="0%"
           fy="0%"
           cx="50%"
           cy="50%"
           r="100%"
           gradientTransform="matrix(1.0018919999999998 0 0 0.5 0.2968203125 0.33984375)">
          <stop
             offset="0%"
             style="stop-color:rgb(24,24,24)"
             id="stop3839" />
          <stop
             offset="100%"
             style="stop-color:rgb(24,24,24)"
             id="stop3841" />
        </radialGradient>
        <rect
           x="103.79"
           y="116"
           width="14.211"
           height="5"
           transform="matrix(1,0,0,1,0,0)"
           fill="url(#_rgradient_9)"
           id="rect3844" />
      </g>
      <g
         id="rect3696"
         style="opacity:0.4;">
        <g
           opacity="0.4"
           id="g3855">
          <radialGradient
             id="_rgradient_10"
             fx="0%"
             fy="0%"
             cx="50%"
             cy="50%"
             r="100%"
             gradientTransform="matrix(1.0018919999999998 0 0 0.5 -0.0781796875 -0.33984375)">
            <stop
               offset="0%"
               style="stop-color:rgb(24,24,24)"
               id="stop3848" />
            <stop
               offset="100%"
               style="stop-color:rgb(24,24,24)"
               id="stop3850" />
          </radialGradient>
          <rect
             x="10"
             y="116"
             width="14.211"
             height="5"
             transform="matrix(-1,0,0,-1,34.211,237)"
             fill="url(#_rgradient_10)"
             id="rect3853" />
        </g>
      </g>
      <g
         opacity="0.4"
         id="g3867">
        <linearGradient
           id="_lgradient_4"
           x1="53.77892857142857%"
           y1="100.39571428571436%"
           x2="53.77892857142859%"
           y2="-0.008428571428442666%">
          <stop
             offset="0%"
             stop-opacity="0"
             style="stop-color:rgb(24,24,24)"
             id="stop3858" />
          <stop
             offset="50%"
             stop-opacity="1"
             style="stop-color:rgb(24,24,24)"
             id="stop3860" />
          <stop
             offset="100%"
             stop-opacity="0"
             style="stop-color:rgb(24,24,24)"
             id="stop3862" />
        </linearGradient>
        <rect
           x="24.211"
           y="116"
           width="79.579"
           height="5"
           transform="matrix(1,0,0,1,0,0)"
           fill="url(#_lgradient_4)"
           id="rect3865" />
      </g>
    </g>
  </g>
  <radialGradient
     id="_rgradient_11"
     fx="0"
     fy="0"
     cx="0.5"
     cy="0.5"
     r="1"
     gradientTransform="matrix(0,3.0859417,-3.7885534,0,0.51714766,-0.30680391)"
     xlink:href="#_lgradient_5">
    <stop
       offset="0%"
       style="stop-color:rgb(147,166,232)"
       id="stop3871" />
    <stop
       offset="19.130434782608695%"
       style="stop-color:rgb(94,108,159)"
       id="stop3873" />
    <stop
       offset="50%"
       style="stop-color:rgb(71,80,113)"
       id="stop3875" />
    <stop
       offset="100%"
       style="stop-color:rgb(57,65,94)"
       id="stop3877" />
  </radialGradient>
  <path
     d=" M 115.5 21.555 C 115.5 18.213 112.787 15.5 109.445 15.5 L 18.555 15.5 C 15.213 15.5 12.5 18.213 12.5 21.555 L 12.5 112.445 C 12.5 115.787 15.213 118.5 18.555 118.5 L 109.445 118.5 C 112.787 118.5 115.5 115.787 115.5 112.445 L 115.5 21.555 Z "
     id="path3880"
     fill-rule="evenodd"
     fill="url(#_rgradient_11)"
     style="fill-opacity:1;fill:url(#linearGradient5194)" />
  <linearGradient
     id="_lgradient_5"
     x1="50%"
     y1="-1.351386138613861%"
     x2="49.999999999999986%"
     y2="101.35158415841585%">
    <stop
       offset="0%"
       stop-opacity="0.3"
       style="stop-color:rgb(255,255,255)"
       id="stop3882" />
    <stop
       offset="6%"
       stop-opacity="0.0705882"
       style="stop-color:rgb(255,255,255)"
       id="stop3884" />
    <stop
       offset="95%"
       stop-opacity="0.0470588"
       style="stop-color:rgb(255,255,255)"
       id="stop3886" />
    <stop
       offset="100%"
       stop-opacity="0.117647"
       style="stop-color:rgb(255,255,255)"
       id="stop3888" />
  </linearGradient>
  <path
     d=" M 114.5 21.5 C 114.5 18.74 112.26 16.5 109.5 16.5 L 18.5 16.5 C 15.74 16.5 13.5 18.74 13.5 21.5 L 13.5 112.5 C 13.5 115.26 15.74 117.5 18.5 117.5 L 109.5 117.5 C 112.26 117.5 114.5 115.26 114.5 112.5 L 114.5 21.5 Z "
     fill-rule="evenodd"
     fill="none"
     vector-effect="non-scaling-stroke"
     stroke-width="1"
     stroke="url(#_lgradient_5)"
     stroke-linejoin="round"
     stroke-linecap="round"
     stroke-miterlimit="4"
     id="path3891" />
  <path
     d=" M 115.5 21.5 C 115.5 18.189 112.811 15.5 109.5 15.5 L 18.5 15.5 C 15.189 15.5 12.5 18.189 12.5 21.5 L 12.5 112.5 C 12.5 115.811 15.189 118.5 18.5 118.5 L 109.5 118.5 C 112.811 118.5 115.5 115.811 115.5 112.5 L 115.5 21.5 Z "
     fill-rule="evenodd"
     fill="none"
     vector-effect="non-scaling-stroke"
     stroke-width="1"
     stroke="rgb(47,55,79)"
     stroke-linejoin="round"
     stroke-linecap="round"
     stroke-miterlimit="4"
     id="path3893" />
  <g
     id="g4005"
     transform="matrix(0.19561984,0,0,0.20724688,31.998381,33.390504)"
     style="fill:#fad967;fill-opacity:1">
    <g
       id="g3948"
       style="fill:#fad967;fill-opacity:1">
      <path
         id="path3944"
         d="M 223.565,51.111 C 223.565,22.883 200.683,0 172.446,0 H 141.779 C 113.543,0 90.666,22.883 90.666,51.111 v 17.953 h 65.933 V 83.52 l -96.642,0.041 c -28.229,0 -51.111,22.883 -51.111,51.12 v 30.666 c 0,28.229 22.883,51.112 51.111,51.112 h 29.344 v -59.006 h 134.285 z m -106.352,2.55 c -4.112,0 -7.444,-3.332 -7.444,-7.438 0,-4.11 3.332,-7.444 7.444,-7.444 4.105,0 7.438,3.334 7.438,7.444 -10e-4,4.106 -3.333,7.438 -7.438,7.438 z"
         inkscape:connector-curvature="0"
         style="fill:#fad967;fill-opacity:1" />
      <path
         id="path3946"
         d="M 267.734,111.231 H 238.39 v 59.006 H 104.105 l 0.021,106.343 c 0,28.228 22.883,51.111 51.119,51.111 h 30.667 c 28.236,0 51.113,-22.883 51.113,-51.111 v -17.953 h -65.933 v -14.456 l 96.642,-0.041 c 28.228,0 51.111,-22.883 51.111,-51.119 v -30.667 c 10e-4,-28.23 -22.882,-51.113 -51.111,-51.113 z M 210.479,274.03 c 4.113,0 7.444,3.332 7.444,7.438 0,4.11 -3.331,7.444 -7.444,7.444 -4.105,0 -7.438,-3.334 -7.438,-7.444 0,-4.106 3.333,-7.438 7.438,-7.438 z"
         inkscape:connector-curvature="0"
         style="fill:#fad967;fill-opacity:1" />
    </g>
    <g
       id="g3950"
       style="fill:#fad967;fill-opacity:1" />
    <g
       id="g3952"
       style="fill:#fad967;fill-opacity:1" />
    <g
       id="g3954"
       style="fill:#fad967;fill-opacity:1" />
    <g
       id="g3956"
       style="fill:#fad967;fill-opacity:1" />
    <g
       id="g3958"
       style="fill:#fad967;fill-opacity:1" />
    <g
       id="g3960"
       style="fill:#fad967;fill-opacity:1" />
    <g
       id="g3962"
       style="fill:#fad967;fill-opacity:1" />
    <g
       id="g3964"
       style="fill:#fad967;fill-opacity:1" />
    <g
       id="g3966"
       style="fill:#fad967;fill-opacity:1" />
    <g
       id="g3968"
       style="fill:#fad967;fill-opacity:1" />
    <g
       id="g3970"
       style="fill:#fad967;fill-opacity:1" />
    <g
       id="g3972"
       style="fill:#fad967;fill-opacity:1" />
    <g
       id="g3974"
       style="fill:#fad967;fill-opacity:1" />
    <g
       id="g3976"
       style="fill:#fad967;fill-opacity:1" />
    <g
       id="g3978"
       style="fill:#fad967;fill-opacity:1" />
  </g>
</svg>
